# xmcd
#
# Track frame offsets:
#	150
#	16342
#	29492
#	46900
#	60222
#	73257
#
# Disc length: 1141 seconds
#
# Revision: 0
# Processed by: cddbd v1.5.2PL0 Copyright (c) Steve Scherf et al.
# Submitted via: audiograbber 1.83.01
#
DISCID=48047306
DTITLE=Marita Vikström - Close Enugh For Bluegrass
DYEAR=1998
DGENRE=Bluegrass
TTITLE0=Waltz Of Time
TTITLE1=Our Golden Wedding Day
TTITLE2=Sweetest Gift
TTITLE3=Catfish John
TTITLE4=Cowgirl
TTITLE5=Your Way Of Living
EXTD=
EXTT0=
EXTT1=
EXTT2=
EXTT3=
EXTT4=
EXTT5=
PLAYORDER=
